# xmcd
#
# Track frame offsets:
#	150
#	23616
#	45798
#	74063
#	100070
#	128598
#	155917
#	182881
#	203635
#	225611
#
# Disc length: 3368 seconds
#
# Revision: 1
# Processed by: cddbd v1.5.1PL0 Copyright (c) Steve Scherf et al.
# Submitted via: EasyCDDAExtractor 5.1.0
#
DISCID=7d0d260a
DTITLE=Manh Quynh and Phi Nhung - Doan Cuoi Tinh Yeu
DYEAR=1900
DGENRE=Blues
TTITLE0=Doan Cuoi Tinh Yeu
TTITLE1=Neu Anh Dung Ve
TTITLE2=Nguoi Da Nhu Mo
TTITLE3=Dom Dom
TTITLE4=Ai Kho Vi Ai
TTITLE5=Do Doc
TTITLE6=Noi Niem Chua Tron
TTITLE7=Bai Tango Cho Em
TTITLE8=Phan Gai Thuyen Quyen
TTITLE9=Mua Pensee No
EXTD=
EXTT0=
EXTT1=
EXTT2=
EXTT3=
EXTT4=
EXTT5=
EXTT6=
EXTT7=
EXTT8=
EXTT9=
PLAYORDER=
